<?xml version="1.0" encoding="UTF-8"?><svg id="Layer_1" xmlns="http://www.w3.org/2000/svg" viewBox="0 0 20 20"><path id="carousel" d="M10.51,15.06c.28-.28,.28-.74,0-1.02-.28-.28-.74-.28-1.02,0-.28,.28-.28,.74,0,1.02,.28,.28,.74,.28,1.02,0Zm1.93,0c.28-.28,.28-.74,0-1.02-.28-.28-.74-.28-1.02,0-.28,.28-.28,.74,0,1.02,.28,.28,.74,.28,1.02,0Zm2.96-6.23v2.34l1.44-1.17-1.44-1.17ZM1,2.8v14.4H19V2.8H1Zm16.92,13.32H2.08V3.88h15.84v12.24Zm-9.34-1.06c.28-.28,.28-.74,0-1.02-.28-.28-.74-.28-1.02,0-.28,.28-.28,.74,0,1.02,.28,.28,.74,.28,1.02,0Zm-3.98-6.23l-1.44,1.17,1.44,1.17v-2.34Z"/></svg>