<?xml version="1.0" encoding="UTF-8"?><svg id="Layer_1" xmlns="http://www.w3.org/2000/svg" viewBox="0 0 20 20"><path id="toast" d="M5.35,3.63l-2.03,.3,.84,5.66,2.03-.3-.84-5.66Zm.73,6.69c-.48-.36-1.16-.26-1.51,.22s-.26,1.16,.22,1.51c.48,.36,1.16,.26,1.51-.22s.26-1.16-.22-1.51Zm12.93-1.1h-5.4V1H1V19H13.6v-2.22h5.4v-7.56Zm-6.48,8.7H2.08V2.08H12.52v7.14h-2.88c-.99,0-1.8,.81-1.8,1.8v3.96c0,.99,.81,1.8,1.8,1.8h2.88v1.14Zm-2.88-2.22c-.4,0-.72-.32-.72-.72v-3.96c0-.4,.32-.72,.72-.72h8.28v5.4H9.64Zm7.86-4.37l-.76-.76-.63,.63-.63-.63-.76,.76,.63,.63-.64,.64,.76,.76,.64-.64,.64,.64,.76-.76-.64-.64,.63-.63Z"/></svg>