<?xml version="1.0" encoding="UTF-8"?><svg id="Layer_1" xmlns="http://www.w3.org/2000/svg" viewBox="0 0 20 20"><path id="progress" d="M12.16,5.26l-.76-.76-3.56,3.56,.76,.76,3.56-3.56Zm-2.99,.57c.28-.28,.28-.74,0-1.02s-.74-.28-1.02,0c-.28,.28-.28,.74,0,1.02,.28,.28,.74,.28,1.02,0Zm1.65,1.65c-.28,.28-.28,.74,0,1.02s.74,.28,1.02,0c.28-.28,.28-.74,0-1.02-.28-.28-.74-.28-1.02,0Zm3.46,3.13H1v5.04H19v-5.04h-4.72Zm-7.16,4.14h-1.08v-3.24h1.08v3.24Zm2.47,0h-1.15v-3.24h1.15v3.24Zm3.38,0h-2.07v-3.24h2.07v3.24Zm5.13,0h-3.82v-3.24h3.82v3.24Z"/></svg>